<mxfile host="app.diagrams.net" modified="2024-01-30T17:38:20.052Z" agent="Mozilla/5.0 (Macintosh; Intel Mac OS X 10_15_7) AppleWebKit/537.36 (KHTML, like Gecko) Chrome/120.0.0.0 Safari/537.36" etag="3sJ8KZhp_ZTjujJPl8il" version="22.1.18" type="device">
  <diagram name="Page-1" id="A6B7-cWxKGjiSPkoLE6h">
    <mxGraphModel dx="2049" dy="1080" grid="1" gridSize="10" guides="1" tooltips="1" connect="1" arrows="1" fold="1" page="1" pageScale="1" pageWidth="827" pageHeight="1169" math="0" shadow="0">
      <root>
        <mxCell id="0" />
        <mxCell id="1" parent="0" />
        <mxCell id="1y4yaPu94soA09TT-AYd-12" value="" style="rounded=0;whiteSpace=wrap;html=1;" vertex="1" parent="1">
          <mxGeometry x="160" y="70" width="730" height="860" as="geometry" />
        </mxCell>
        <mxCell id="1y4yaPu94soA09TT-AYd-1" value="Mahasiswa" style="shape=umlActor;verticalLabelPosition=bottom;verticalAlign=top;html=1;outlineConnect=0;" vertex="1" parent="1">
          <mxGeometry x="60" y="170" width="30" height="60" as="geometry" />
        </mxCell>
        <mxCell id="1y4yaPu94soA09TT-AYd-3" value="Fakultas" style="shape=umlActor;verticalLabelPosition=bottom;verticalAlign=top;html=1;outlineConnect=0;" vertex="1" parent="1">
          <mxGeometry x="50" y="550" width="30" height="60" as="geometry" />
        </mxCell>
        <mxCell id="1y4yaPu94soA09TT-AYd-14" value="Melihat Landing Page" style="ellipse;whiteSpace=wrap;html=1;" vertex="1" parent="1">
          <mxGeometry x="310" y="80" width="120" height="50" as="geometry" />
        </mxCell>
        <mxCell id="1y4yaPu94soA09TT-AYd-18" value="" style="endArrow=none;html=1;rounded=0;exitX=0;exitY=0.5;exitDx=0;exitDy=0;" edge="1" parent="1" source="1y4yaPu94soA09TT-AYd-14" target="1y4yaPu94soA09TT-AYd-1">
          <mxGeometry width="50" height="50" relative="1" as="geometry">
            <mxPoint x="430" y="490" as="sourcePoint" />
            <mxPoint x="480" y="440" as="targetPoint" />
          </mxGeometry>
        </mxCell>
        <mxCell id="1y4yaPu94soA09TT-AYd-32" value="Melihat Profil" style="ellipse;whiteSpace=wrap;html=1;" vertex="1" parent="1">
          <mxGeometry x="315" y="150" width="110" height="50" as="geometry" />
        </mxCell>
        <mxCell id="1y4yaPu94soA09TT-AYd-33" value="" style="endArrow=none;html=1;rounded=0;" edge="1" parent="1" source="1y4yaPu94soA09TT-AYd-32">
          <mxGeometry width="50" height="50" relative="1" as="geometry">
            <mxPoint x="341" y="181" as="sourcePoint" />
            <mxPoint x="100" y="210" as="targetPoint" />
          </mxGeometry>
        </mxCell>
        <mxCell id="1y4yaPu94soA09TT-AYd-39" value="Upload Kegiatan" style="ellipse;whiteSpace=wrap;html=1;" vertex="1" parent="1">
          <mxGeometry x="325" y="220" width="100" height="50" as="geometry" />
        </mxCell>
        <mxCell id="1y4yaPu94soA09TT-AYd-42" value="Authentications" style="ellipse;whiteSpace=wrap;html=1;" vertex="1" parent="1">
          <mxGeometry x="770" y="410" width="100" height="50" as="geometry" />
        </mxCell>
        <mxCell id="1y4yaPu94soA09TT-AYd-44" value="" style="endArrow=none;html=1;rounded=0;" edge="1" parent="1" source="1y4yaPu94soA09TT-AYd-39">
          <mxGeometry width="50" height="50" relative="1" as="geometry">
            <mxPoint x="327" y="192" as="sourcePoint" />
            <mxPoint x="100" y="220" as="targetPoint" />
          </mxGeometry>
        </mxCell>
        <mxCell id="1y4yaPu94soA09TT-AYd-45" value="Melihat Transkrip" style="ellipse;whiteSpace=wrap;html=1;" vertex="1" parent="1">
          <mxGeometry x="325" y="290" width="100" height="50" as="geometry" />
        </mxCell>
        <mxCell id="1y4yaPu94soA09TT-AYd-46" value="" style="endArrow=none;html=1;rounded=0;" edge="1" parent="1" source="1y4yaPu94soA09TT-AYd-45">
          <mxGeometry width="50" height="50" relative="1" as="geometry">
            <mxPoint x="336" y="251" as="sourcePoint" />
            <mxPoint x="100" y="240" as="targetPoint" />
          </mxGeometry>
        </mxCell>
        <mxCell id="1y4yaPu94soA09TT-AYd-48" value="" style="endArrow=none;dashed=1;html=1;dashPattern=1 3;strokeWidth=2;rounded=0;" edge="1" parent="1" source="1y4yaPu94soA09TT-AYd-47" target="1y4yaPu94soA09TT-AYd-45">
          <mxGeometry width="50" height="50" relative="1" as="geometry">
            <mxPoint x="430" y="490" as="sourcePoint" />
            <mxPoint x="480" y="440" as="targetPoint" />
          </mxGeometry>
        </mxCell>
        <mxCell id="1y4yaPu94soA09TT-AYd-49" value="Extend" style="edgeLabel;html=1;align=center;verticalAlign=middle;resizable=0;points=[];" vertex="1" connectable="0" parent="1y4yaPu94soA09TT-AYd-48">
          <mxGeometry x="-0.0371" y="-2" relative="1" as="geometry">
            <mxPoint as="offset" />
          </mxGeometry>
        </mxCell>
        <mxCell id="1y4yaPu94soA09TT-AYd-50" value="Cetak SKPI" style="ellipse;whiteSpace=wrap;html=1;" vertex="1" parent="1">
          <mxGeometry x="410" y="360" width="100" height="50" as="geometry" />
        </mxCell>
        <mxCell id="1y4yaPu94soA09TT-AYd-51" value="" style="endArrow=none;dashed=1;html=1;dashPattern=1 3;strokeWidth=2;rounded=0;" edge="1" parent="1" source="1y4yaPu94soA09TT-AYd-50" target="1y4yaPu94soA09TT-AYd-45">
          <mxGeometry width="50" height="50" relative="1" as="geometry">
            <mxPoint x="432" y="372" as="sourcePoint" />
            <mxPoint x="370" y="338" as="targetPoint" />
          </mxGeometry>
        </mxCell>
        <mxCell id="1y4yaPu94soA09TT-AYd-52" value="Extend" style="edgeLabel;html=1;align=center;verticalAlign=middle;resizable=0;points=[];" vertex="1" connectable="0" parent="1y4yaPu94soA09TT-AYd-51">
          <mxGeometry x="-0.0371" y="-2" relative="1" as="geometry">
            <mxPoint as="offset" />
          </mxGeometry>
        </mxCell>
        <mxCell id="1y4yaPu94soA09TT-AYd-53" value="Melihat History" style="ellipse;whiteSpace=wrap;html=1;" vertex="1" parent="1">
          <mxGeometry x="330" y="410" width="100" height="50" as="geometry" />
        </mxCell>
        <mxCell id="1y4yaPu94soA09TT-AYd-54" value="" style="endArrow=none;html=1;rounded=0;exitX=0;exitY=0.5;exitDx=0;exitDy=0;" edge="1" parent="1" source="1y4yaPu94soA09TT-AYd-53">
          <mxGeometry width="50" height="50" relative="1" as="geometry">
            <mxPoint x="345" y="305" as="sourcePoint" />
            <mxPoint x="110" y="250" as="targetPoint" />
          </mxGeometry>
        </mxCell>
        <mxCell id="1y4yaPu94soA09TT-AYd-57" value="" style="endArrow=none;dashed=1;html=1;dashPattern=1 3;strokeWidth=2;rounded=0;exitX=0.5;exitY=0;exitDx=0;exitDy=0;entryX=0.5;entryY=1;entryDx=0;entryDy=0;" edge="1" parent="1" source="1y4yaPu94soA09TT-AYd-55" target="1y4yaPu94soA09TT-AYd-53">
          <mxGeometry width="50" height="50" relative="1" as="geometry">
            <mxPoint x="442" y="382" as="sourcePoint" />
            <mxPoint x="408" y="338" as="targetPoint" />
          </mxGeometry>
        </mxCell>
        <mxCell id="1y4yaPu94soA09TT-AYd-58" value="Extend" style="edgeLabel;html=1;align=center;verticalAlign=middle;resizable=0;points=[];" vertex="1" connectable="0" parent="1y4yaPu94soA09TT-AYd-57">
          <mxGeometry x="-0.0371" y="-2" relative="1" as="geometry">
            <mxPoint as="offset" />
          </mxGeometry>
        </mxCell>
        <mxCell id="1y4yaPu94soA09TT-AYd-66" value="Melihat Data SKPI" style="ellipse;whiteSpace=wrap;html=1;" vertex="1" parent="1">
          <mxGeometry x="340" y="520" width="100" height="45" as="geometry" />
        </mxCell>
        <mxCell id="1y4yaPu94soA09TT-AYd-69" value="" style="endArrow=none;dashed=1;html=1;dashPattern=1 3;strokeWidth=2;rounded=0;entryX=1;entryY=0.5;entryDx=0;entryDy=0;" edge="1" parent="1" source="1y4yaPu94soA09TT-AYd-68" target="1y4yaPu94soA09TT-AYd-66">
          <mxGeometry width="50" height="50" relative="1" as="geometry">
            <mxPoint x="416" y="331" as="sourcePoint" />
            <mxPoint x="479" y="309" as="targetPoint" />
          </mxGeometry>
        </mxCell>
        <mxCell id="1y4yaPu94soA09TT-AYd-70" value="Extend" style="edgeLabel;html=1;align=center;verticalAlign=middle;resizable=0;points=[];" vertex="1" connectable="0" parent="1y4yaPu94soA09TT-AYd-69">
          <mxGeometry x="-0.0371" y="-2" relative="1" as="geometry">
            <mxPoint as="offset" />
          </mxGeometry>
        </mxCell>
        <mxCell id="1y4yaPu94soA09TT-AYd-71" value="Melihat Data Kegiatan Mahasiswa" style="ellipse;whiteSpace=wrap;html=1;" vertex="1" parent="1">
          <mxGeometry x="360" y="585" width="120" height="45" as="geometry" />
        </mxCell>
        <mxCell id="1y4yaPu94soA09TT-AYd-72" value="" style="endArrow=none;html=1;rounded=0;exitX=0;exitY=0.5;exitDx=0;exitDy=0;entryX=1;entryY=0.3333333333333333;entryDx=0;entryDy=0;entryPerimeter=0;" edge="1" parent="1" source="1y4yaPu94soA09TT-AYd-71" target="1y4yaPu94soA09TT-AYd-3">
          <mxGeometry width="50" height="50" relative="1" as="geometry">
            <mxPoint x="380" y="518" as="sourcePoint" />
            <mxPoint x="90" y="525" as="targetPoint" />
          </mxGeometry>
        </mxCell>
        <mxCell id="1y4yaPu94soA09TT-AYd-74" value="" style="endArrow=none;dashed=1;html=1;dashPattern=1 3;strokeWidth=2;rounded=0;entryX=1;entryY=1;entryDx=0;entryDy=0;exitX=0;exitY=0;exitDx=0;exitDy=0;" edge="1" parent="1" source="1y4yaPu94soA09TT-AYd-76" target="1y4yaPu94soA09TT-AYd-71">
          <mxGeometry width="50" height="50" relative="1" as="geometry">
            <mxPoint x="530" y="635" as="sourcePoint" />
            <mxPoint x="480" y="563" as="targetPoint" />
          </mxGeometry>
        </mxCell>
        <mxCell id="1y4yaPu94soA09TT-AYd-75" value="Extend" style="edgeLabel;html=1;align=center;verticalAlign=middle;resizable=0;points=[];" vertex="1" connectable="0" parent="1y4yaPu94soA09TT-AYd-74">
          <mxGeometry x="-0.0371" y="-2" relative="1" as="geometry">
            <mxPoint as="offset" />
          </mxGeometry>
        </mxCell>
        <mxCell id="1y4yaPu94soA09TT-AYd-77" value="" style="endArrow=none;dashed=1;html=1;dashPattern=1 3;strokeWidth=2;rounded=0;exitX=0;exitY=0.5;exitDx=0;exitDy=0;entryX=1;entryY=0.5;entryDx=0;entryDy=0;" edge="1" parent="1" source="1y4yaPu94soA09TT-AYd-73" target="1y4yaPu94soA09TT-AYd-71">
          <mxGeometry width="50" height="50" relative="1" as="geometry">
            <mxPoint x="540" y="645" as="sourcePoint" />
            <mxPoint x="490" y="573" as="targetPoint" />
          </mxGeometry>
        </mxCell>
        <mxCell id="1y4yaPu94soA09TT-AYd-78" value="Extend" style="edgeLabel;html=1;align=center;verticalAlign=middle;resizable=0;points=[];" vertex="1" connectable="0" parent="1y4yaPu94soA09TT-AYd-77">
          <mxGeometry x="-0.0371" y="-2" relative="1" as="geometry">
            <mxPoint as="offset" />
          </mxGeometry>
        </mxCell>
        <mxCell id="1y4yaPu94soA09TT-AYd-79" value="Melihat Kegiatan Mandiri" style="ellipse;whiteSpace=wrap;html=1;" vertex="1" parent="1">
          <mxGeometry x="354" y="640" width="120" height="45" as="geometry" />
        </mxCell>
        <mxCell id="1y4yaPu94soA09TT-AYd-80" value="" style="endArrow=none;html=1;rounded=0;exitX=0;exitY=0.5;exitDx=0;exitDy=0;" edge="1" parent="1" source="1y4yaPu94soA09TT-AYd-79" target="1y4yaPu94soA09TT-AYd-3">
          <mxGeometry width="50" height="50" relative="1" as="geometry">
            <mxPoint x="370" y="573" as="sourcePoint" />
            <mxPoint x="100" y="535" as="targetPoint" />
          </mxGeometry>
        </mxCell>
        <mxCell id="1y4yaPu94soA09TT-AYd-82" value="" style="endArrow=none;dashed=1;html=1;dashPattern=1 3;strokeWidth=2;rounded=0;entryX=1;entryY=1;entryDx=0;entryDy=0;exitX=0.5;exitY=0;exitDx=0;exitDy=0;" edge="1" parent="1" source="1y4yaPu94soA09TT-AYd-81" target="1y4yaPu94soA09TT-AYd-79">
          <mxGeometry width="50" height="50" relative="1" as="geometry">
            <mxPoint x="540" y="645" as="sourcePoint" />
            <mxPoint x="473" y="588" as="targetPoint" />
          </mxGeometry>
        </mxCell>
        <mxCell id="1y4yaPu94soA09TT-AYd-83" value="Extend" style="edgeLabel;html=1;align=center;verticalAlign=middle;resizable=0;points=[];" vertex="1" connectable="0" parent="1y4yaPu94soA09TT-AYd-82">
          <mxGeometry x="-0.0371" y="-2" relative="1" as="geometry">
            <mxPoint as="offset" />
          </mxGeometry>
        </mxCell>
        <mxCell id="1y4yaPu94soA09TT-AYd-84" value="Upload Data Kegiatan mandiri" style="ellipse;whiteSpace=wrap;html=1;" vertex="1" parent="1">
          <mxGeometry x="315" y="700" width="130" height="52.5" as="geometry" />
        </mxCell>
        <mxCell id="1y4yaPu94soA09TT-AYd-85" value="" style="endArrow=none;html=1;rounded=0;exitX=0;exitY=0.5;exitDx=0;exitDy=0;" edge="1" parent="1" source="1y4yaPu94soA09TT-AYd-84" target="1y4yaPu94soA09TT-AYd-3">
          <mxGeometry width="50" height="50" relative="1" as="geometry">
            <mxPoint x="364" y="643" as="sourcePoint" />
            <mxPoint x="100" y="550" as="targetPoint" />
          </mxGeometry>
        </mxCell>
        <mxCell id="1y4yaPu94soA09TT-AYd-86" value="Melihat Kegiatan non-mandiri" style="ellipse;whiteSpace=wrap;html=1;" vertex="1" parent="1">
          <mxGeometry x="310" y="790" width="130" height="52.5" as="geometry" />
        </mxCell>
        <mxCell id="1y4yaPu94soA09TT-AYd-87" value="Export Exel" style="ellipse;whiteSpace=wrap;html=1;" vertex="1" parent="1">
          <mxGeometry x="500" y="810" width="120" height="45" as="geometry" />
        </mxCell>
        <mxCell id="1y4yaPu94soA09TT-AYd-88" value="" style="endArrow=none;dashed=1;html=1;dashPattern=1 3;strokeWidth=2;rounded=0;entryX=1;entryY=0.5;entryDx=0;entryDy=0;exitX=0;exitY=0.5;exitDx=0;exitDy=0;" edge="1" parent="1" source="1y4yaPu94soA09TT-AYd-87" target="1y4yaPu94soA09TT-AYd-86">
          <mxGeometry width="50" height="50" relative="1" as="geometry">
            <mxPoint x="520" y="695" as="sourcePoint" />
            <mxPoint x="467" y="658" as="targetPoint" />
          </mxGeometry>
        </mxCell>
        <mxCell id="1y4yaPu94soA09TT-AYd-89" value="Extend" style="edgeLabel;html=1;align=center;verticalAlign=middle;resizable=0;points=[];" vertex="1" connectable="0" parent="1y4yaPu94soA09TT-AYd-88">
          <mxGeometry x="-0.0371" y="-2" relative="1" as="geometry">
            <mxPoint as="offset" />
          </mxGeometry>
        </mxCell>
        <mxCell id="1y4yaPu94soA09TT-AYd-90" value="" style="endArrow=none;html=1;rounded=0;exitX=0;exitY=1;exitDx=0;exitDy=0;entryX=0.5;entryY=0;entryDx=0;entryDy=0;entryPerimeter=0;" edge="1" parent="1" source="1y4yaPu94soA09TT-AYd-14" target="1y4yaPu94soA09TT-AYd-3">
          <mxGeometry width="50" height="50" relative="1" as="geometry">
            <mxPoint x="380" y="518" as="sourcePoint" />
            <mxPoint x="80" y="480" as="targetPoint" />
          </mxGeometry>
        </mxCell>
        <mxCell id="1y4yaPu94soA09TT-AYd-91" value="" style="endArrow=none;dashed=1;html=1;dashPattern=1 3;strokeWidth=2;rounded=0;entryX=0.99;entryY=0.257;entryDx=0;entryDy=0;entryPerimeter=0;" edge="1" parent="1" target="1y4yaPu94soA09TT-AYd-32">
          <mxGeometry width="50" height="50" relative="1" as="geometry">
            <mxPoint x="770" y="410" as="sourcePoint" />
            <mxPoint x="480" y="518" as="targetPoint" />
          </mxGeometry>
        </mxCell>
        <mxCell id="1y4yaPu94soA09TT-AYd-92" value="Include" style="edgeLabel;html=1;align=center;verticalAlign=middle;resizable=0;points=[];" vertex="1" connectable="0" parent="1y4yaPu94soA09TT-AYd-91">
          <mxGeometry x="-0.0371" y="-2" relative="1" as="geometry">
            <mxPoint as="offset" />
          </mxGeometry>
        </mxCell>
        <mxCell id="1y4yaPu94soA09TT-AYd-93" value="" style="endArrow=none;dashed=1;html=1;dashPattern=1 3;strokeWidth=2;rounded=0;entryX=1;entryY=0.5;entryDx=0;entryDy=0;" edge="1" parent="1" target="1y4yaPu94soA09TT-AYd-39">
          <mxGeometry width="50" height="50" relative="1" as="geometry">
            <mxPoint x="780" y="430" as="sourcePoint" />
            <mxPoint x="434" y="173" as="targetPoint" />
          </mxGeometry>
        </mxCell>
        <mxCell id="1y4yaPu94soA09TT-AYd-94" value="Include" style="edgeLabel;html=1;align=center;verticalAlign=middle;resizable=0;points=[];" vertex="1" connectable="0" parent="1y4yaPu94soA09TT-AYd-93">
          <mxGeometry x="-0.0371" y="-2" relative="1" as="geometry">
            <mxPoint as="offset" />
          </mxGeometry>
        </mxCell>
        <mxCell id="1y4yaPu94soA09TT-AYd-95" value="" style="endArrow=none;dashed=1;html=1;dashPattern=1 3;strokeWidth=2;rounded=0;entryX=0.939;entryY=0.686;entryDx=0;entryDy=0;entryPerimeter=0;exitX=0;exitY=0.5;exitDx=0;exitDy=0;" edge="1" parent="1" source="1y4yaPu94soA09TT-AYd-42" target="1y4yaPu94soA09TT-AYd-45">
          <mxGeometry width="50" height="50" relative="1" as="geometry">
            <mxPoint x="790" y="440" as="sourcePoint" />
            <mxPoint x="435" y="255" as="targetPoint" />
          </mxGeometry>
        </mxCell>
        <mxCell id="1y4yaPu94soA09TT-AYd-96" value="Include" style="edgeLabel;html=1;align=center;verticalAlign=middle;resizable=0;points=[];" vertex="1" connectable="0" parent="1y4yaPu94soA09TT-AYd-95">
          <mxGeometry x="-0.0371" y="-2" relative="1" as="geometry">
            <mxPoint as="offset" />
          </mxGeometry>
        </mxCell>
        <mxCell id="1y4yaPu94soA09TT-AYd-55" value="Melihat Alasan Ditolak" style="ellipse;whiteSpace=wrap;html=1;" vertex="1" parent="1">
          <mxGeometry x="225" y="460" width="100" height="50" as="geometry" />
        </mxCell>
        <mxCell id="1y4yaPu94soA09TT-AYd-47" value="Melihat Detail Kegiatan Pilihan" style="ellipse;whiteSpace=wrap;html=1;" vertex="1" parent="1">
          <mxGeometry x="240" y="360" width="100" height="50" as="geometry" />
        </mxCell>
        <mxCell id="1y4yaPu94soA09TT-AYd-98" value="" style="endArrow=none;dashed=1;html=1;dashPattern=1 3;strokeWidth=2;rounded=0;entryX=1;entryY=0.5;entryDx=0;entryDy=0;" edge="1" parent="1" target="1y4yaPu94soA09TT-AYd-53">
          <mxGeometry width="50" height="50" relative="1" as="geometry">
            <mxPoint x="770" y="445" as="sourcePoint" />
            <mxPoint x="429" y="334" as="targetPoint" />
          </mxGeometry>
        </mxCell>
        <mxCell id="1y4yaPu94soA09TT-AYd-99" value="Include" style="edgeLabel;html=1;align=center;verticalAlign=middle;resizable=0;points=[];" vertex="1" connectable="0" parent="1y4yaPu94soA09TT-AYd-98">
          <mxGeometry x="-0.0371" y="-2" relative="1" as="geometry">
            <mxPoint as="offset" />
          </mxGeometry>
        </mxCell>
        <mxCell id="1y4yaPu94soA09TT-AYd-100" value="" style="endArrow=none;html=1;rounded=0;exitX=0;exitY=0.5;exitDx=0;exitDy=0;entryX=0.75;entryY=0.1;entryDx=0;entryDy=0;entryPerimeter=0;" edge="1" parent="1" source="1y4yaPu94soA09TT-AYd-66" target="1y4yaPu94soA09TT-AYd-3">
          <mxGeometry width="50" height="50" relative="1" as="geometry">
            <mxPoint x="370" y="618" as="sourcePoint" />
            <mxPoint x="90" y="580" as="targetPoint" />
          </mxGeometry>
        </mxCell>
        <mxCell id="1y4yaPu94soA09TT-AYd-101" value="" style="endArrow=none;html=1;rounded=0;exitX=0;exitY=0.5;exitDx=0;exitDy=0;entryX=1;entryY=1;entryDx=0;entryDy=0;entryPerimeter=0;" edge="1" parent="1" source="1y4yaPu94soA09TT-AYd-86" target="1y4yaPu94soA09TT-AYd-3">
          <mxGeometry width="50" height="50" relative="1" as="geometry">
            <mxPoint x="310" y="766" as="sourcePoint" />
            <mxPoint x="90" y="601" as="targetPoint" />
          </mxGeometry>
        </mxCell>
        <mxCell id="1y4yaPu94soA09TT-AYd-102" value="Upload Data kegiatan non-mandiri" style="ellipse;whiteSpace=wrap;html=1;" vertex="1" parent="1">
          <mxGeometry x="315" y="855" width="130" height="52.5" as="geometry" />
        </mxCell>
        <mxCell id="1y4yaPu94soA09TT-AYd-103" value="" style="endArrow=none;html=1;rounded=0;exitX=0;exitY=0.5;exitDx=0;exitDy=0;" edge="1" parent="1" source="1y4yaPu94soA09TT-AYd-102">
          <mxGeometry width="50" height="50" relative="1" as="geometry">
            <mxPoint x="320" y="826" as="sourcePoint" />
            <mxPoint x="80" y="630" as="targetPoint" />
          </mxGeometry>
        </mxCell>
        <mxCell id="1y4yaPu94soA09TT-AYd-104" value="" style="endArrow=none;dashed=1;html=1;dashPattern=1 3;strokeWidth=2;rounded=0;entryX=1;entryY=0;entryDx=0;entryDy=0;" edge="1" parent="1" target="1y4yaPu94soA09TT-AYd-66">
          <mxGeometry width="50" height="50" relative="1" as="geometry">
            <mxPoint x="780" y="455" as="sourcePoint" />
            <mxPoint x="440" y="445" as="targetPoint" />
          </mxGeometry>
        </mxCell>
        <mxCell id="1y4yaPu94soA09TT-AYd-105" value="Include" style="edgeLabel;html=1;align=center;verticalAlign=middle;resizable=0;points=[];" vertex="1" connectable="0" parent="1y4yaPu94soA09TT-AYd-104">
          <mxGeometry x="-0.0371" y="-2" relative="1" as="geometry">
            <mxPoint as="offset" />
          </mxGeometry>
        </mxCell>
        <mxCell id="1y4yaPu94soA09TT-AYd-106" value="" style="endArrow=none;dashed=1;html=1;dashPattern=1 3;strokeWidth=2;rounded=0;" edge="1" parent="1" target="1y4yaPu94soA09TT-AYd-71">
          <mxGeometry width="50" height="50" relative="1" as="geometry">
            <mxPoint x="800" y="450" as="sourcePoint" />
            <mxPoint x="436" y="537" as="targetPoint" />
          </mxGeometry>
        </mxCell>
        <mxCell id="1y4yaPu94soA09TT-AYd-107" value="Include" style="edgeLabel;html=1;align=center;verticalAlign=middle;resizable=0;points=[];" vertex="1" connectable="0" parent="1y4yaPu94soA09TT-AYd-106">
          <mxGeometry x="-0.0371" y="-2" relative="1" as="geometry">
            <mxPoint as="offset" />
          </mxGeometry>
        </mxCell>
        <mxCell id="1y4yaPu94soA09TT-AYd-68" value="Validasi SKPI" style="ellipse;whiteSpace=wrap;html=1;" vertex="1" parent="1">
          <mxGeometry x="530" y="510" width="100" height="45" as="geometry" />
        </mxCell>
        <mxCell id="1y4yaPu94soA09TT-AYd-108" value="" style="endArrow=none;dashed=1;html=1;dashPattern=1 3;strokeWidth=2;rounded=0;exitX=0.5;exitY=1;exitDx=0;exitDy=0;entryX=1;entryY=0.5;entryDx=0;entryDy=0;" edge="1" parent="1" source="1y4yaPu94soA09TT-AYd-42" target="1y4yaPu94soA09TT-AYd-79">
          <mxGeometry width="50" height="50" relative="1" as="geometry">
            <mxPoint x="800" y="475" as="sourcePoint" />
            <mxPoint x="472" y="601" as="targetPoint" />
          </mxGeometry>
        </mxCell>
        <mxCell id="1y4yaPu94soA09TT-AYd-109" value="Include" style="edgeLabel;html=1;align=center;verticalAlign=middle;resizable=0;points=[];" vertex="1" connectable="0" parent="1y4yaPu94soA09TT-AYd-108">
          <mxGeometry x="-0.0371" y="-2" relative="1" as="geometry">
            <mxPoint as="offset" />
          </mxGeometry>
        </mxCell>
        <mxCell id="1y4yaPu94soA09TT-AYd-110" value="" style="endArrow=none;dashed=1;html=1;dashPattern=1 3;strokeWidth=2;rounded=0;entryX=0.969;entryY=0.327;entryDx=0;entryDy=0;entryPerimeter=0;" edge="1" parent="1" source="1y4yaPu94soA09TT-AYd-42" target="1y4yaPu94soA09TT-AYd-84">
          <mxGeometry width="50" height="50" relative="1" as="geometry">
            <mxPoint x="830" y="470" as="sourcePoint" />
            <mxPoint x="484" y="673" as="targetPoint" />
          </mxGeometry>
        </mxCell>
        <mxCell id="1y4yaPu94soA09TT-AYd-111" value="Include" style="edgeLabel;html=1;align=center;verticalAlign=middle;resizable=0;points=[];" vertex="1" connectable="0" parent="1y4yaPu94soA09TT-AYd-110">
          <mxGeometry x="-0.0371" y="-2" relative="1" as="geometry">
            <mxPoint as="offset" />
          </mxGeometry>
        </mxCell>
        <mxCell id="1y4yaPu94soA09TT-AYd-73" value="Melihat Detail Kegiatan Mahasiswa" style="ellipse;whiteSpace=wrap;html=1;" vertex="1" parent="1">
          <mxGeometry x="540" y="570" width="120" height="50" as="geometry" />
        </mxCell>
        <mxCell id="1y4yaPu94soA09TT-AYd-112" value="" style="endArrow=none;dashed=1;html=1;dashPattern=1 3;strokeWidth=2;rounded=0;entryX=1;entryY=0;entryDx=0;entryDy=0;exitX=0.5;exitY=1;exitDx=0;exitDy=0;" edge="1" parent="1" source="1y4yaPu94soA09TT-AYd-42" target="1y4yaPu94soA09TT-AYd-86">
          <mxGeometry width="50" height="50" relative="1" as="geometry">
            <mxPoint x="802" y="466" as="sourcePoint" />
            <mxPoint x="451" y="727" as="targetPoint" />
          </mxGeometry>
        </mxCell>
        <mxCell id="1y4yaPu94soA09TT-AYd-113" value="Include" style="edgeLabel;html=1;align=center;verticalAlign=middle;resizable=0;points=[];" vertex="1" connectable="0" parent="1y4yaPu94soA09TT-AYd-112">
          <mxGeometry x="-0.0371" y="-2" relative="1" as="geometry">
            <mxPoint as="offset" />
          </mxGeometry>
        </mxCell>
        <mxCell id="1y4yaPu94soA09TT-AYd-114" value="" style="endArrow=none;dashed=1;html=1;dashPattern=1 3;strokeWidth=2;rounded=0;entryX=1;entryY=0.5;entryDx=0;entryDy=0;exitX=1;exitY=1;exitDx=0;exitDy=0;" edge="1" parent="1" source="1y4yaPu94soA09TT-AYd-42" target="1y4yaPu94soA09TT-AYd-102">
          <mxGeometry width="50" height="50" relative="1" as="geometry">
            <mxPoint x="830" y="470" as="sourcePoint" />
            <mxPoint x="431" y="808" as="targetPoint" />
          </mxGeometry>
        </mxCell>
        <mxCell id="1y4yaPu94soA09TT-AYd-115" value="Include" style="edgeLabel;html=1;align=center;verticalAlign=middle;resizable=0;points=[];" vertex="1" connectable="0" parent="1y4yaPu94soA09TT-AYd-114">
          <mxGeometry x="-0.0371" y="-2" relative="1" as="geometry">
            <mxPoint as="offset" />
          </mxGeometry>
        </mxCell>
        <mxCell id="1y4yaPu94soA09TT-AYd-76" value="Validasi Kegiatan" style="ellipse;whiteSpace=wrap;html=1;" vertex="1" parent="1">
          <mxGeometry x="540" y="660" width="120" height="50" as="geometry" />
        </mxCell>
        <mxCell id="1y4yaPu94soA09TT-AYd-81" value="Export Exel" style="ellipse;whiteSpace=wrap;html=1;" vertex="1" parent="1">
          <mxGeometry x="480" y="737.5" width="120" height="45" as="geometry" />
        </mxCell>
      </root>
    </mxGraphModel>
  </diagram>
</mxfile>
